<mxfile host="app.diagrams.net" agent="Mozilla/5.0 (Windows NT 10.0; Win64; x64) AppleWebKit/537.36 (KHTML, like Gecko) Chrome/131.0.0.0 Safari/537.36" version="25.0.1">
  <diagram name="Page-1" id="e3a06f82-3646-2815-327d-82caf3d4e204">
    <mxGraphModel dx="2607" dy="1356" grid="1" gridSize="10" guides="1" tooltips="1" connect="1" arrows="1" fold="1" page="1" pageScale="1.5" pageWidth="1169" pageHeight="826" background="none" math="0" shadow="0">
      <root>
        <mxCell id="0" style=";html=1;" />
        <mxCell id="1" style=";html=1;" parent="0" />
        <mxCell id="bneuUTBQzyQNMBGNakRV-9" value="" style="whiteSpace=wrap;html=1;aspect=fixed;dashed=1;dashPattern=8 8;shadow=0;fillColor=#76608a;strokeColor=#432D57;fontColor=#ffffff;" parent="1" vertex="1">
          <mxGeometry x="220" y="600" width="580" height="580" as="geometry" />
        </mxCell>
        <mxCell id="6a7d8f32e03d9370-62" value="LuluLand Topography" style="text;strokeColor=none;fillColor=none;html=1;fontSize=24;fontStyle=1;verticalAlign=middle;align=center;" parent="1" vertex="1">
          <mxGeometry x="499" y="30" width="861" height="40" as="geometry" />
        </mxCell>
        <mxCell id="bneuUTBQzyQNMBGNakRV-3" value="" style="group;perimeterSpacing=1;strokeWidth=1;shadow=0;" parent="1" vertex="1" connectable="0">
          <mxGeometry x="887" y="467" width="120" height="153" as="geometry" />
        </mxCell>
        <mxCell id="bneuUTBQzyQNMBGNakRV-1" value="" style="verticalLabelPosition=bottom;sketch=0;aspect=fixed;html=1;verticalAlign=top;strokeColor=none;align=center;outlineConnect=0;shape=mxgraph.citrix.firewall;" parent="bneuUTBQzyQNMBGNakRV-3" vertex="1">
          <mxGeometry x="19" width="75" height="93" as="geometry" />
        </mxCell>
        <mxCell id="bneuUTBQzyQNMBGNakRV-2" value="&lt;font style=&quot;font-size: 20px;&quot;&gt;OPNsense&lt;/font&gt;&lt;div&gt;&lt;font style=&quot;font-size: 20px;&quot;&gt;Firewall&lt;/font&gt;&lt;/div&gt;" style="text;html=1;align=center;verticalAlign=middle;resizable=0;points=[];autosize=1;strokeColor=none;fillColor=none;" parent="bneuUTBQzyQNMBGNakRV-3" vertex="1">
          <mxGeometry y="93" width="120" height="60" as="geometry" />
        </mxCell>
        <mxCell id="bneuUTBQzyQNMBGNakRV-6" value="" style="group" parent="1" vertex="1" connectable="0">
          <mxGeometry x="892" y="711.5" width="110" height="101.5" as="geometry" />
        </mxCell>
        <mxCell id="bneuUTBQzyQNMBGNakRV-4" value="" style="verticalLabelPosition=bottom;sketch=0;aspect=fixed;html=1;verticalAlign=top;strokeColor=none;align=center;outlineConnect=0;shape=mxgraph.citrix.switch;" parent="bneuUTBQzyQNMBGNakRV-6" vertex="1">
          <mxGeometry x="9" width="92" height="41.5" as="geometry" />
        </mxCell>
        <mxCell id="bneuUTBQzyQNMBGNakRV-5" value="&lt;font style=&quot;font-size: 20px;&quot;&gt;Virtual&lt;/font&gt;&lt;div&gt;&lt;font style=&quot;font-size: 20px;&quot;&gt;L2 Switch&lt;/font&gt;&lt;/div&gt;" style="text;html=1;align=center;verticalAlign=middle;resizable=0;points=[];autosize=1;strokeColor=none;fillColor=none;" parent="bneuUTBQzyQNMBGNakRV-6" vertex="1">
          <mxGeometry y="41.5" width="110" height="60" as="geometry" />
        </mxCell>
        <mxCell id="bneuUTBQzyQNMBGNakRV-7" style="edgeStyle=orthogonalEdgeStyle;rounded=0;orthogonalLoop=1;jettySize=auto;html=1;endArrow=none;endFill=0;" parent="1" source="bneuUTBQzyQNMBGNakRV-2" target="bneuUTBQzyQNMBGNakRV-4" edge="1">
          <mxGeometry relative="1" as="geometry" />
        </mxCell>
        <mxCell id="bneuUTBQzyQNMBGNakRV-11" value="&lt;font style=&quot;font-size: 20px;&quot;&gt;INTERNAL NETWORK (LULULAND)&lt;/font&gt;" style="text;html=1;align=center;verticalAlign=middle;resizable=0;points=[];autosize=1;strokeColor=none;fillColor=none;" parent="1" vertex="1">
          <mxGeometry x="340.5" y="600" width="350" height="40" as="geometry" />
        </mxCell>
        <mxCell id="bneuUTBQzyQNMBGNakRV-12" value="" style="verticalLabelPosition=bottom;sketch=0;aspect=fixed;html=1;verticalAlign=top;strokeColor=none;align=center;outlineConnect=0;shape=mxgraph.citrix.desktop;" parent="1" vertex="1">
          <mxGeometry x="240.5" y="841" width="89" height="98" as="geometry" />
        </mxCell>
        <mxCell id="bneuUTBQzyQNMBGNakRV-13" value="" style="verticalLabelPosition=bottom;sketch=0;aspect=fixed;html=1;verticalAlign=top;strokeColor=none;align=center;outlineConnect=0;shape=mxgraph.citrix.desktop;" parent="1" vertex="1">
          <mxGeometry x="466" y="841" width="89" height="98" as="geometry" />
        </mxCell>
        <mxCell id="bneuUTBQzyQNMBGNakRV-14" value="" style="verticalLabelPosition=bottom;sketch=0;aspect=fixed;html=1;verticalAlign=top;strokeColor=none;align=center;outlineConnect=0;shape=mxgraph.citrix.desktop;" parent="1" vertex="1">
          <mxGeometry x="690.5" y="841" width="89" height="98" as="geometry" />
        </mxCell>
        <mxCell id="bneuUTBQzyQNMBGNakRV-15" value="&lt;font style=&quot;font-size: 20px;&quot;&gt;Windows 10&lt;/font&gt;&lt;div&gt;&lt;font style=&quot;font-size: 20px;&quot;&gt;Machine&lt;/font&gt;&lt;/div&gt;" style="text;html=1;align=center;verticalAlign=middle;resizable=0;points=[];autosize=1;strokeColor=none;fillColor=none;" parent="1" vertex="1">
          <mxGeometry x="220" y="939" width="130" height="60" as="geometry" />
        </mxCell>
        <mxCell id="bneuUTBQzyQNMBGNakRV-16" value="&lt;font style=&quot;font-size: 20px;&quot;&gt;Kali Linux&lt;/font&gt;&lt;div&gt;&lt;font style=&quot;font-size: 20px;&quot;&gt;Machine&lt;/font&gt;&lt;/div&gt;" style="text;html=1;align=center;verticalAlign=middle;resizable=0;points=[];autosize=1;strokeColor=none;fillColor=none;" parent="1" vertex="1">
          <mxGeometry x="455.5" y="939" width="110" height="60" as="geometry" />
        </mxCell>
        <mxCell id="bneuUTBQzyQNMBGNakRV-17" value="&lt;div&gt;&lt;font style=&quot;font-size: 20px;&quot;&gt;Ubuntu&amp;nbsp;&lt;/font&gt;&lt;/div&gt;&lt;div&gt;&lt;font style=&quot;font-size: 20px;&quot;&gt;Machine&lt;/font&gt;&lt;/div&gt;" style="text;html=1;align=center;verticalAlign=middle;resizable=0;points=[];autosize=1;strokeColor=none;fillColor=none;" parent="1" vertex="1">
          <mxGeometry x="685" y="940" width="100" height="60" as="geometry" />
        </mxCell>
        <mxCell id="l2w3dQk0W_4AYU8CrLum-5" style="edgeStyle=elbowEdgeStyle;rounded=0;orthogonalLoop=1;jettySize=auto;html=1;elbow=vertical;endArrow=none;endFill=0;" edge="1" parent="1" source="bneuUTBQzyQNMBGNakRV-4" target="bneuUTBQzyQNMBGNakRV-12">
          <mxGeometry relative="1" as="geometry">
            <Array as="points">
              <mxPoint x="620" y="750" />
            </Array>
          </mxGeometry>
        </mxCell>
        <mxCell id="l2w3dQk0W_4AYU8CrLum-7" value="" style="endArrow=none;html=1;rounded=0;elbow=vertical;" edge="1" parent="1" source="bneuUTBQzyQNMBGNakRV-13">
          <mxGeometry width="50" height="50" relative="1" as="geometry">
            <mxPoint x="510" y="830" as="sourcePoint" />
            <mxPoint x="510" y="750" as="targetPoint" />
          </mxGeometry>
        </mxCell>
        <mxCell id="l2w3dQk0W_4AYU8CrLum-8" value="" style="endArrow=none;html=1;rounded=0;elbow=vertical;" edge="1" parent="1">
          <mxGeometry width="50" height="50" relative="1" as="geometry">
            <mxPoint x="720" y="840" as="sourcePoint" />
            <mxPoint x="720" y="750" as="targetPoint" />
          </mxGeometry>
        </mxCell>
        <mxCell id="l2w3dQk0W_4AYU8CrLum-10" style="edgeStyle=none;rounded=0;orthogonalLoop=1;jettySize=auto;html=1;elbow=vertical;endArrow=none;endFill=0;" edge="1" parent="1" source="l2w3dQk0W_4AYU8CrLum-9" target="bneuUTBQzyQNMBGNakRV-1">
          <mxGeometry relative="1" as="geometry" />
        </mxCell>
        <mxCell id="l2w3dQk0W_4AYU8CrLum-9" value="" style="verticalLabelPosition=bottom;sketch=0;aspect=fixed;html=1;verticalAlign=top;strokeColor=none;align=center;outlineConnect=0;shape=mxgraph.citrix.cloud;" vertex="1" parent="1">
          <mxGeometry x="840" y="210" width="199.19" height="130" as="geometry" />
        </mxCell>
      </root>
    </mxGraphModel>
  </diagram>
</mxfile>
